<svg width="84" height="84" viewBox="0 0 84 84" fill="none" xmlns="http://www.w3.org/2000/svg">
<g filter="url(#filter0_d_2002_13239)">
<circle cx="42" cy="42" r="26.5" stroke="url(#paint0_linear_2002_13239)" shape-rendering="crispEdges"/>
</g>
<g filter="url(#filter1_d_2002_13239)">
<circle cx="42" cy="42" r="26.5" stroke="url(#paint1_linear_2002_13239)" shape-rendering="crispEdges"/>
</g>
<path d="M40.9921 44.8034C41.9973 44.1342 42.7605 43.1593 43.1687 42.0228C43.577 40.8863 43.6087 39.6487 43.2591 38.4928C42.9095 37.3369 42.1973 36.3242 41.2276 35.6045C40.258 34.8847 39.0825 34.4961 37.8749 34.4961C36.6674 34.4961 35.4918 34.8847 34.5222 35.6045C33.5526 36.3242 32.8403 37.3369 32.4908 38.4928C32.1412 39.6487 32.1729 40.8863 32.5811 42.0228C32.9894 43.1593 33.7525 44.1342 34.7577 44.8034C32.9394 45.4735 31.3866 46.7137 30.3309 48.3387C30.2754 48.4212 30.2368 48.5138 30.2175 48.6113C30.1981 48.7088 30.1983 48.8092 30.2181 48.9066C30.2379 49.004 30.2768 49.0965 30.3327 49.1787C30.3885 49.2609 30.4601 49.3313 30.5434 49.3856C30.6266 49.4399 30.7199 49.4771 30.8176 49.495C30.9154 49.513 31.0157 49.5113 31.1128 49.4902C31.21 49.469 31.3019 49.4287 31.3833 49.3717C31.4647 49.3147 31.534 49.2421 31.5871 49.1581C32.2681 48.1107 33.1999 47.25 34.298 46.6542C35.3961 46.0583 36.6256 45.7463 37.8749 45.7463C39.1242 45.7463 40.3538 46.0583 41.4518 46.6542C42.5499 47.25 43.4817 48.1107 44.1627 49.1581C44.2727 49.3216 44.4427 49.4352 44.6358 49.4744C44.8289 49.5136 45.0297 49.4752 45.1947 49.3676C45.3598 49.2599 45.4758 49.0916 45.5178 48.8991C45.5598 48.7066 45.5243 48.5053 45.419 48.3387C44.3633 46.7137 42.8104 45.4735 40.9921 44.8034ZM33.7499 40.1234C33.7499 39.3075 33.9919 38.51 34.4451 37.8316C34.8984 37.1533 35.5426 36.6246 36.2964 36.3124C37.0501 36.0002 37.8795 35.9185 38.6797 36.0776C39.4798 36.2368 40.2148 36.6297 40.7917 37.2066C41.3686 37.7835 41.7615 38.5185 41.9207 39.3186C42.0798 40.1188 41.9981 40.9482 41.6859 41.7019C41.3737 42.4557 40.845 43.0999 40.1667 43.5532C39.4883 44.0064 38.6908 44.2484 37.8749 44.2484C36.7813 44.2471 35.7328 43.8121 34.9595 43.0388C34.1862 42.2655 33.7512 41.217 33.7499 40.1234ZM53.4506 49.3765C53.284 49.4851 53.081 49.5232 52.8864 49.4822C52.6918 49.4412 52.5214 49.3246 52.4127 49.1581C51.7326 48.11 50.8008 47.249 49.7025 46.6534C48.6042 46.0578 47.3743 45.7467 46.1249 45.7484C45.926 45.7484 45.7352 45.6694 45.5946 45.5287C45.4539 45.3881 45.3749 45.1973 45.3749 44.9984C45.3749 44.7995 45.4539 44.6087 45.5946 44.468C45.7352 44.3274 45.926 44.2484 46.1249 44.2484C46.7324 44.2478 47.3322 44.1131 47.8816 43.8538C48.431 43.5945 48.9163 43.2171 49.3029 42.7485C49.6895 42.28 49.9678 41.7318 50.118 41.1432C50.2682 40.5546 50.2865 39.94 50.1716 39.3435C50.0568 38.747 49.8116 38.1832 49.4536 37.6924C49.0956 37.2017 48.6337 36.796 48.1007 36.5045C47.5678 36.2129 46.977 36.0427 46.3707 36.0059C45.7643 35.9692 45.1573 36.0668 44.5931 36.2918C44.501 36.3316 44.402 36.3525 44.3018 36.3534C44.2016 36.3542 44.1022 36.335 44.0095 36.2967C43.9169 36.2585 43.8328 36.2021 43.7623 36.1309C43.6918 36.0596 43.6363 35.975 43.5991 35.8819C43.5619 35.7889 43.5437 35.6893 43.5456 35.5891C43.5475 35.4889 43.5695 35.3901 43.6102 35.2985C43.651 35.2069 43.7097 35.1244 43.7828 35.0559C43.856 34.9874 43.9421 34.9343 44.0362 34.8996C45.3275 34.3846 46.7639 34.3661 48.0681 34.8476C49.3723 35.3291 50.452 36.2766 51.0989 37.5072C51.7458 38.7378 51.914 40.1644 51.5711 41.5117C51.2283 42.8591 50.3986 44.0317 49.2421 44.8034C51.0604 45.4735 52.6133 46.7137 53.669 48.3387C53.7776 48.5053 53.8156 48.7082 53.7747 48.9028C53.7337 49.0975 53.6171 49.2678 53.4506 49.3765Z" fill="white"/>
<defs>
<filter id="filter0_d_2002_13239" x="0" y="0" width="84" height="84" filterUnits="userSpaceOnUse" color-interpolation-filters="sRGB">
<feFlood flood-opacity="0" result="BackgroundImageFix"/>
<feColorMatrix in="SourceAlpha" type="matrix" values="0 0 0 0 0 0 0 0 0 0 0 0 0 0 0 0 0 0 127 0" result="hardAlpha"/>
<feOffset/>
<feGaussianBlur stdDeviation="7.5"/>
<feComposite in2="hardAlpha" operator="out"/>
<feColorMatrix type="matrix" values="0 0 0 0 0.166357 0 0 0 0 0.899963 0 0 0 0 1 0 0 0 1 0"/>
<feBlend mode="normal" in2="BackgroundImageFix" result="effect1_dropShadow_2002_13239"/>
<feBlend mode="normal" in="SourceGraphic" in2="effect1_dropShadow_2002_13239" result="shape"/>
</filter>
<filter id="filter1_d_2002_13239" x="5" y="5" width="74" height="74" filterUnits="userSpaceOnUse" color-interpolation-filters="sRGB">
<feFlood flood-opacity="0" result="BackgroundImageFix"/>
<feColorMatrix in="SourceAlpha" type="matrix" values="0 0 0 0 0 0 0 0 0 0 0 0 0 0 0 0 0 0 127 0" result="hardAlpha"/>
<feOffset/>
<feGaussianBlur stdDeviation="5"/>
<feComposite in2="hardAlpha" operator="out"/>
<feColorMatrix type="matrix" values="0 0 0 0 0.166357 0 0 0 0 0.899963 0 0 0 0 1 0 0 0 1 0"/>
<feBlend mode="normal" in2="BackgroundImageFix" result="effect1_dropShadow_2002_13239"/>
<feBlend mode="normal" in="SourceGraphic" in2="effect1_dropShadow_2002_13239" result="shape"/>
</filter>
<linearGradient id="paint0_linear_2002_13239" x1="42" y1="15" x2="55" y2="71" gradientUnits="userSpaceOnUse">
<stop stop-color="#2AFDFD"/>
<stop offset="1" stop-color="#00A3E8"/>
</linearGradient>
<linearGradient id="paint1_linear_2002_13239" x1="42" y1="15" x2="55" y2="71" gradientUnits="userSpaceOnUse">
<stop stop-color="#2AFDFD"/>
<stop offset="1" stop-color="#00A3E8"/>
</linearGradient>
</defs>
</svg>
